<?xml version="1.0" encoding="UTF-8" standalone="no"?><!DOCTYPE svg PUBLIC "-//W3C//DTD SVG 1.1//EN" "http://www.w3.org/Graphics/SVG/1.1/DTD/svg11.dtd"><svg width="100%" height="100%" viewBox="0 0 100 100" version="1.1" xmlns="http://www.w3.org/2000/svg" xmlns:xlink="http://www.w3.org/1999/xlink" xml:space="preserve" xmlns:serif="http://www.serif.com/" style="fill-rule:evenodd;clip-rule:evenodd;stroke-linejoin:round;stroke-miterlimit:2;"><g id="Backgrounds"><g id="Export"><path d="M54.761883582951,7.8844700062l15.532579726153,57.968376710617c1.519162832823,5.669592877068 -1.850459777826,11.505950439517 -7.520052658629,13.025113273342l-33.852300294373,9.070696525813c-5.669592880802,1.519162833824 -11.505950444016,-1.850459775502 -13.025113276816,-7.52005265248l-15.532579726177,-57.968376710706c-1.519162832823,-5.669592877068 1.850459777826,-11.505950439517 7.520052658552,-13.025113273321l33.85230029445,-9.070696525834c5.669592880802,-1.519162833824 11.505950444016,1.850459775502 13.02511327684,7.520052652569Zm-36.912769206934,67.75546196241l1.066400910399,3.979862378846c1.072768709167,4.00362732738 5.194158223724,6.383112671235 9.197785553741,5.310343961361l33.852300294373,-9.070696525813c4.003627330017,-1.072768709873 6.383112676587,-5.194158222863 5.310343967421,-9.197785550243l-3.85570746205,-14.389696147492l-11.989942560553,-11.529453030571c-0.403135178812,-0.38765603208 -0.979717225227,-0.536118892126 -1.519941133973,-0.391366344572c-0.540223908746,0.144752547554 -0.965327196321,0.561616160685 -1.12062450954,1.098903715083l-6.213185807847,21.495586391167l-11.154958183977,-5.749784481324c-0.731472849928,-0.377029355078 -1.629689891601,-0.136352788039 -2.074649232368,0.555900669761l-11.497821835628,17.888184963796Zm-0.383327044243,-52.613119868157c-3.805392757513,1.019651916259 -6.067060878912,4.936976012381 -5.047408962653,8.742368769893c1.019651916259,3.805392757513 4.936976012381,6.067060878912 8.742368769893,5.047408962653c3.805392757513,-1.019651916259 6.067060878912,-4.936976012381 5.047408962653,-8.742368769893c-1.019651916259,-3.805392757513 -4.936976012381,-6.067060878912 -8.742368769893,-5.047408962653Z" style="fill:#fff;"/><path d="M73.312981516257,65.044037200872l-13.853204096787,-51.700861536829l32.158863969868,6.978822301528c5.736081607559,1.244791926846 9.382438994024,6.912375534093 8.137647067998,12.648457137873l-12.727292569111,58.648186291423c-1.244791926026,5.73608160378 -6.9123755341,9.38243898896 -12.648457141659,8.137647062115l-34.249294645058,-7.432468432482c-2.01620716308,-0.43753882374 -3.774230733194,-1.421509676867 -5.15241331617,-2.762818792542l28.604389380879,-7.664523034592c7.335558431791,-1.96555695783 11.69531830652,-9.516882569739 9.729761350039,-16.852440996495Z" style="fill:#fff;"/></g></g></svg>