<?xml version="1.0" encoding="UTF-8" standalone="no"?><!DOCTYPE svg PUBLIC "-//W3C//DTD SVG 1.1//EN" "http://www.w3.org/Graphics/SVG/1.1/DTD/svg11.dtd"><svg width="100%" height="100%" viewBox="0 0 100 100" version="1.1" xmlns="http://www.w3.org/2000/svg" xmlns:xlink="http://www.w3.org/1999/xlink" xml:space="preserve" xmlns:serif="http://www.serif.com/" style="fill-rule:evenodd;clip-rule:evenodd;stroke-linejoin:round;stroke-miterlimit:2;"><g id="Settings"><path d="M59.34961602362,0.915131755952c-0.496444821916,6.296249133708 2.025744168998,10.960000078699 7.566566972744,13.991252834973c5.824575348215,2.442034526352 11.043401777595,1.506160131572 15.656479288139,-2.807623184339c4.771043184747,4.096688444266 8.726461557633,9.056626202727 11.658780484045,14.619648312508c-5.232134077846,3.537510933746 -7.305842278834,8.417238844189 -6.221124602965,14.639183731327c1.722303855794,6.076420002209 5.707884977657,9.573154665268 11.956743365591,10.490203989178c-0.228223229673,6.284395232442 -1.63989570274,12.469336452951 -4.160970579418,18.23040325922c-6.027919657072,-1.885045151399 -11.135980478681,-0.463874920377 -15.324182464827,4.263510693064c-3.676897568636,5.135137280023 -3.925785630091,10.43136847925 -0.746664184364,15.88869359768c-5.055632897243,3.739824232289 -10.771378051174,6.492382025994 -16.847425928247,8.113292719284c-2.284558787371,-5.888123789627 -6.580498245477,-8.995681408576 -12.887818374318,-9.322672856845c-6.307320128841,0.326991448269 -10.603259586947,3.434549067218 -12.887818374318,9.322672856845c-6.076047877073,-1.62091069329 -11.791793031003,-4.373468486995 -16.847425928247,-8.113292719284c3.179121445727,-5.45732511843 2.930233384273,-10.753556317657 -0.746664184364,-15.88869359768c-4.188201986146,-4.727385613441 -9.296262807755,-6.148555844463 -15.324182464827,-4.263510693064c-2.521074876677,-5.761066806269 -3.932747349745,-11.946008026777 -4.160970579418,-18.23040325922c6.248858387933,-0.91704932391 10.234439509797,-4.413783986969 11.956743365591,-10.490203989178c1.084717675869,-6.221944887138 -0.98899052512,-11.101672797581 -6.221124602965,-14.639183731327c2.932318926412,-5.563022109781 6.887737299297,-10.522959868242 11.658780484044,-14.619648312508c4.613077510545,4.313783315911 9.831903939924,5.249657710691 15.656479288139,2.807623184339c5.540822803746,-3.031252756274 8.06301179466,-7.695003701265 7.566566972744,-13.991252834973c6.177616769508,-1.175908299658 12.521615277733,-1.175908299658 18.699232047241,0Zm-9.34961602362,33.155699035248c8.80987168604,-0 15.962369740009,7.15249805397 15.962369740009,15.962369740009c0,8.80987168604 -7.15249805397,15.962369740009 -15.962369740009,15.962369740009c-8.80987168604,0 -15.962369740009,-7.15249805397 -15.962369740009,-15.962369740009c0,-8.80987168604 7.15249805397,-15.962369740009 15.962369740009,-15.962369740009Z" style="fill:#fff;"/></g></svg>